<svg width="189" height="40" viewBox="0 0 189 40" fill="none" xmlns="http://www.w3.org/2000/svg">
<path fill-rule="evenodd" clip-rule="evenodd" d="M34.4927 3.86024C34.4927 3.86024 35.8165 3.86024 47.216 3.86024C58.6155 3.86024 64.6707 12.8111 64.6707 20.0184C64.6707 27.2257 58.6277 36.1152 47.216 36.1152H34.4927V3.86024ZM40.5969 9.90114V30.1234H47.216C54.3498 30.1234 58.5174 25.1507 58.5174 20.0307C58.5174 14.9107 54.3621 9.90114 47.216 9.90114C40.0698 9.90114 40.5969 9.90114 40.5969 9.90114Z" fill="#FAFAFA"/>
<path fill-rule="evenodd" clip-rule="evenodd" d="M82.0641 3.82341C92.9733 3.82341 98.0111 10.8711 98.0111 15.9175H92.1643C92.1643 14.616 89.2347 9.87658 82.0641 9.87658C75.3715 9.87658 71.9394 14.4564 71.9394 20.0061C71.9394 25.5559 75.9108 30.1357 82.0641 30.1357C89.8599 30.1357 92.1643 25.0771 92.1643 23.5054H98.0111C98.0111 23.5054 98.0111 36.1766 82.0641 36.1766C71.2162 36.1766 66.1048 27.0907 66.1048 19.9939C66.1048 12.897 71.1549 3.82341 82.0641 3.82341Z" fill="#FAFAFA"/>
<path d="M17.3689 22.2039L24.9073 18.8643C25.0176 18.8151 25.0789 18.7169 25.0789 18.5941L25.1524 10.4782C25.1524 10.2695 24.9318 10.1221 24.7357 10.2081L17.2096 13.5355C17.0992 13.5846 17.038 13.6828 17.038 13.8056L16.9522 21.9338C16.9522 22.1426 17.1728 22.2899 17.3689 22.2039Z" fill="#FAFAFA"/>
<path d="M27.1381 4.22859C23.706 3.09899 20.1759 4.79339 17.516 6.70879C15.1748 8.39091 12.8336 10.7115 10.6763 13.3145C10.7989 15.2299 11.0073 17.9557 12.7233 20.6446C13.6549 19.294 14.5374 18.1276 15.6774 16.777L15.7141 13.3759C15.7141 13.0935 15.8857 12.8356 16.1554 12.7129L25.2995 8.67331C25.7898 8.45231 26.3537 8.80838 26.3537 9.34862C26.3537 9.34862 26.3537 21.6146 26.3414 25.7524C11.044 28.5518 9.85505 16.6173 9.57312 14.5178C9.377 13.0812 9.26669 11.4605 9.26669 9.6433H3.16244C3.16244 14.3336 3.82435 18.2381 5.06236 21.4059C3.29727 23.5423 0 31.56 0 36.1152H6.10424C6.10424 32.6036 8.60478 27.6923 8.78864 27.324C10.0634 28.6255 14.8316 33.5736 26.3292 31.8301V36.1152H32.4334V11.7306C32.4211 5.64059 27.1014 4.21631 27.1381 4.22859Z" fill="#FAFAFA"/>
</svg>
